Coordinates
version=1
nRows=15
nColumns=63
inDegrees=yes

Units are S.I. units (second, meters, Newtons, ...)
If the header above contains a line with 'inDegrees', this indicates whether rotational values are in degrees (yes) or radians (no).

endheader
time	pelvis_tilt	pelvis_list	pelvis_rotation	pelvis_tx	pelvis_ty	pelvis_tz	hip_flexion_r	hip_adduction_r	hip_rotation_r	knee_angle_r	knee_angle_r_beta	ankle_angle_r	subtalar_angle_r	mtp_angle_r	hip_flexion_l	hip_adduction_l	hip_rotation_l	knee_angle_l	knee_angle_l_beta	ankle_angle_l	subtalar_angle_l	mtp_angle_l	L5_S1_Flex_Ext	L5_S1_Lat_Bending	L5_S1_axial_rotation	L4_L5_Flex_Ext	L4_L5_Lat_Bending	L4_L5_axial_rotation	L3_L4_Flex_Ext	L3_L4_Lat_Bending	L3_L4_axial_rotation	L2_L3_Flex_Ext	L2_L3_Lat_Bending	L2_L3_axial_rotation	L1_L2_Flex_Ext	L1_L2_Lat_Bending	L1_L2_axial_rotation	L1_T12_Flex_Ext	L1_T12_Lat_Bending	L1_T12_axial_rotation	Abs_r3	Abs_r2	Abs_r1	Abs_t1	Abs_t2	neck_flexion	neck_bending	neck_rotation	arm_flex_r	arm_add_r	arm_rot_r	elbow_flex_r	pro_sup_r	wrist_flex_r	wrist_dev_r	arm_flex_l	arm_add_l	arm_rot_l	elbow_flex_l	pro_sup_l	wrist_flex_l	wrist_dev_l
1.928571	-2.467755	-7.437253	108.520097	0.303889	0.864646	0.492683	-4.545206	-1.451161	-5.542317	0.458079	0.007995	26.816875	-7.933348	0.000000	0.484632	0.956044	29.232714	3.352300	0.058509	23.529080	-8.194233	0.000000	0.018696	-0.000067	0.552769	0.034721	-0.000090	0.587317	0.030716	-0.000164	0.587317	0.021368	-0.000164	0.483673	0.017361	-0.000137	0.449125	0.010683	-0.000104	0.414577	0.133546	-0.000762	3.074335	0.000000	0.000000	22.785243	1.251479	-6.374662	8.650781	-11.789899	60.250793	45.806956	33.639992	2.523066	11.329548	1.356611	-10.713625	36.984973	57.141078	76.752377	9.686580	9.008654
1.952381	-2.453493	-7.581430	108.546874	0.303910	0.864370	0.493089	-4.383609	-1.489033	-5.537174	0.450402	0.007861	26.858871	-7.879051	0.000000	0.741494	1.029551	28.613191	3.572275	0.062348	23.688846	-7.584645	0.000000	0.025935	0.007002	0.524450	0.048165	0.009312	0.557228	0.042609	0.017024	0.557228	0.029642	0.017024	0.458894	0.024084	0.014278	0.426115	0.014820	0.010846	0.393337	0.185254	0.079205	2.916832	0.000000	0.000000	22.938491	1.266947	-6.178945	8.607995	-11.742914	60.000264	45.756843	33.655716	2.552781	11.612413	1.190707	-10.666757	36.748543	57.228073	76.420844	9.564066	9.207308
1.976190	-2.393600	-7.713399	108.492436	0.303873	0.864057	0.493532	-4.211860	-1.494799	-5.467048	0.441405	0.007704	26.870449	-7.824029	0.000000	0.983951	1.058578	28.009994	3.779823	0.065970	23.827336	-7.092426	0.000000	0.033792	0.021073	0.471110	0.062755	0.028027	0.500554	0.055517	0.051237	0.500554	0.038621	0.051237	0.412221	0.031379	0.042972	0.382776	0.019309	0.032642	0.353332	0.241373	0.238384	2.620170	0.000000	0.000000	23.100279	1.318346	-5.793764	8.639239	-11.688753	59.878182	45.671345	33.695870	2.606210	12.078247	0.937334	-10.615063	36.323529	57.289674	76.258024	9.512849	9.590415
2.000000	-2.298011	-7.815888	108.316226	0.303828	0.863729	0.494010	-4.045932	-1.475486	-5.217728	0.432077	0.007541	26.829736	-7.870050	0.000000	1.183801	1.046145	27.414216	3.964136	0.069187	23.928166	-6.762779	0.000000	0.039754	0.040768	0.417372	0.073826	0.054222	0.443458	0.065311	0.099124	0.443458	0.045434	0.099124	0.365200	0.036915	0.083134	0.339115	0.022715	0.063150	0.313029	0.283956	0.461177	2.321298	0.000000	0.000000	23.258833	1.353468	-5.350530	8.671111	-11.646949	59.656550	45.589645	34.260859	2.786400	12.654597	0.749539	-10.596325	36.083664	57.236407	75.908153	9.559108	9.951933
2.023810	-2.168174	-7.899443	108.049978	0.303785	0.863408	0.494565	-3.875176	-1.428932	-4.878568	0.425311	0.007423	26.748172	-7.942321	0.000000	1.355063	0.991938	26.863464	4.120645	0.071919	23.960702	-6.610147	0.000000	0.045330	0.063767	0.360147	0.084183	0.084810	0.382657	0.074473	0.155043	0.382657	0.051808	0.155043	0.315129	0.042094	0.130033	0.292620	0.025902	0.098775	0.270111	0.323791	0.721343	2.003032	0.000000	0.000000	23.409694	1.384242	-4.920104	8.805545	-11.633886	59.680523	45.481863	34.917487	2.994755	13.137200	0.618531	-10.592346	35.969223	57.079451	75.508682	9.782444	10.417479
2.047619	-2.006824	-7.953132	107.681969	0.303788	0.863133	0.495207	-3.707741	-1.354927	-4.442139	0.421471	0.007356	26.635275	-8.037087	0.000000	1.485581	0.894571	26.338686	4.246328	0.074112	23.931792	-6.620688	0.000000	0.048948	0.089158	0.321034	0.090901	0.118581	0.341099	0.080416	0.216780	0.341099	0.055942	0.216780	0.280905	0.045453	0.181812	0.260840	0.027969	0.138106	0.240776	0.349628	1.008577	1.785495	0.000000	0.000000	23.548863	1.404518	-4.584630	8.981447	-11.669329	59.851386	45.383731	35.344903	3.166441	13.515726	0.679788	-10.595254	36.305374	56.729057	75.034965	10.224103	10.752367
2.071429	-1.812899	-7.971359	107.206066	0.303869	0.862927	0.495898	-3.548745	-1.248653	-3.856201	0.420509	0.007339	26.489634	-8.220329	0.000000	1.566108	0.749320	25.847584	4.335799	0.075674	23.849479	-6.799265	0.000000	0.050590	0.116205	0.316562	0.093951	0.154552	0.336347	0.083115	0.282540	0.336347	0.057820	0.282540	0.276992	0.046978	0.236965	0.257207	0.028907	0.180001	0.237422	0.361361	1.314532	1.760625	0.000000	0.000000	23.678235	1.407780	-4.437569	9.080452	-11.731941	59.855129	45.297179	35.960217	3.393960	13.817433	0.993845	-10.588151	37.259880	56.148952	74.547962	10.862821	10.824081
2.095238	-1.580403	-7.941381	106.612898	0.304085	0.862828	0.496648	-3.407070	-1.099896	-3.123761	0.422149	0.007368	26.318177	-8.455477	0.000000	1.578648	0.542876	25.386546	4.369489	0.076262	23.716229	-7.159873	0.000000	0.048788	0.145363	0.348955	0.090603	0.193333	0.370764	0.080153	0.353435	0.370764	0.055759	0.353435	0.305335	0.045304	0.296424	0.283526	0.027877	0.225167	0.261716	0.348484	1.644374	1.940781	0.000000	0.000000	23.795204	1.440096	-4.471295	9.126693	-11.816171	59.767077	45.221133	37.183078	3.553349	13.971239	1.571256	-10.576108	38.815358	55.363691	74.235335	11.632616	10.584447
2.119048	-1.326140	-7.884674	105.941320	0.304372	0.862813	0.497436	-3.272912	-0.928163	-2.288188	0.426711	0.007448	26.135492	-8.758027	0.000000	1.552151	0.304744	24.977310	4.365636	0.076195	23.576273	-7.640310	0.000000	0.046755	0.172719	0.418744	0.086828	0.229716	0.444915	0.076813	0.419949	0.444915	0.053436	0.419949	0.366401	0.043416	0.352209	0.340229	0.026716	0.267542	0.314058	0.333964	1.953833	2.328928	0.000000	0.000000	23.862726	1.559451	-4.793020	9.002530	-11.886839	59.314590	45.167907	39.028551	3.685211	14.077159	2.414248	-10.567327	40.984644	54.405033	73.993122	12.453015	9.996152
2.142857	-1.032386	-7.798085	105.154293	0.304771	0.862889	0.498235	-3.142971	-0.717681	-1.334144	0.438622	0.007655	25.952912	-9.069233	0.000000	1.481878	0.017021	24.538215	4.313772	0.075290	23.471024	-8.188174	0.000000	0.043470	0.200962	0.522190	0.080729	0.267280	0.554827	0.071417	0.488620	0.554827	0.049682	0.488620	0.456917	0.040367	0.409802	0.424280	0.024839	0.311291	0.391643	0.310504	2.273326	2.904266	0.000000	0.000000	23.850400	1.690257	-5.396146	8.718051	-11.938023	58.439138	45.145792	42.096915	3.869155	14.188209	3.483899	-10.572435	43.628691	53.329251	73.782108	13.180399	9.073555
2.166667	-0.708872	-7.685029	104.270516	0.305269	0.863058	0.498976	-3.024291	-0.472256	-0.269502	0.459119	0.008013	25.771998	-9.389662	0.000000	1.357675	-0.316172	24.114718	4.189850	0.073127	23.387899	-8.847826	0.000000	0.039156	0.228977	0.627162	0.072717	0.304540	0.666360	0.064330	0.556735	0.666360	0.044751	0.556735	0.548767	0.036360	0.466930	0.509569	0.022374	0.354686	0.470372	0.279688	2.590235	3.488088	0.000000	0.000000	23.696698	1.829009	-6.171630	8.415142	-11.964995	57.607272	45.106850	45.616545	4.027517	14.241267	4.618725	-10.590032	46.307832	52.262139	73.673432	13.821702	8.114177
2.190476	-0.360597	-7.577599	103.264947	0.305863	0.863267	0.499579	-2.881980	-0.210771	0.798001	0.509872	0.008899	25.656991	-9.520400	0.000000	1.231462	-0.667355	23.604319	4.066652	0.070976	23.412774	-9.509963	0.000000	0.039250	0.255765	0.726141	0.072891	0.340168	0.771524	0.064484	0.621868	0.771524	0.044859	0.621868	0.635373	0.036447	0.521557	0.589989	0.022427	0.396181	0.544605	0.280358	2.893270	4.038576	0.000000	0.000000	23.390099	1.853007	-7.134059	7.978355	-11.934328	56.486655	45.056417	50.436321	4.276506	14.178725	5.749942	-10.601547	48.888273	51.199341	73.597933	14.363926	6.991372
2.214286	0.005250	-7.436850	102.130638	0.306626	0.863543	0.500097	-2.766877	0.075341	1.869144	0.573561	0.010011	25.588167	-9.446434	0.000000	1.041505	-1.054264	22.878402	3.899387	0.068057	23.552492	-9.980832	0.000000	0.035595	0.281033	0.801071	0.066104	0.373774	0.851138	0.058479	0.683303	0.851138	0.040682	0.683303	0.700937	0.033054	0.573082	0.650870	0.020339	0.435320	0.600803	0.254253	3.179101	4.455318	0.000000	0.000000	23.034681	1.767291	-8.217067	7.604349	-11.888518	55.661461	45.001836	54.815694	4.471488	14.096835	6.845953	-10.638134	51.268229	50.263213	73.204165	14.627527	5.986064
2.238095	0.384330	-7.294634	100.907866	0.307543	0.863829	0.500488	-2.657190	0.377613	2.949044	0.653370	0.011403	25.547310	-9.243441	0.000000	0.822500	-1.460935	22.012625	3.711818	0.064783	23.759005	-10.347333	0.000000	0.035477	0.302578	0.836847	0.065884	0.402429	0.889150	0.058284	0.735689	0.889150	0.040546	0.735689	0.732242	0.032944	0.617017	0.679939	0.020271	0.468694	0.627636	0.253406	3.422825	4.654294	0.000000	0.000000	22.619399	1.532921	-9.403256	7.304566	-11.819354	55.148056	44.934162	58.678793	4.633897	13.988445	7.846538	-10.696738	53.327421	49.465105	72.574027	14.663047	5.088213
2.261905	0.752739	-7.148340	99.648975	0.308591	0.864089	0.500719	-2.572614	0.678123	4.113273	0.736750	0.012859	25.494581	-9.107616	0.000000	0.577155	-1.863412	21.191535	3.530869	0.061625	23.973453	-10.812854	0.000000	0.037575	0.317602	0.807161	0.069781	0.422410	0.857609	0.061732	0.772217	0.857609	0.042945	0.772217	0.706266	0.034892	0.647653	0.655818	0.021470	0.491965	0.605371	0.268396	3.592773	4.489187	0.000000	0.000000	22.227545	1.196612	-10.528837	7.205241	-11.732672	55.223617	44.830757	61.725484	4.788923	13.749875	8.586079	-10.742889	54.656468	48.875161	72.034568	14.592189	4.404852
